<?xml version="1.0" encoding="utf-8" standalone="no"?>
<!DOCTYPE svg PUBLIC "-//W3C//DTD SVG 1.1//EN"
  "http://www.w3.org/Graphics/SVG/1.1/DTD/svg11.dtd">
<!-- Created with matplotlib (https://matplotlib.org/) -->
<svg height="288pt" version="1.1" viewBox="0 0 432 288" width="432pt" xmlns="http://www.w3.org/2000/svg" xmlns:xlink="http://www.w3.org/1999/xlink">
 <defs>
  <style type="text/css">
*{stroke-linecap:butt;stroke-linejoin:round;}
  </style>
 </defs>
 <g id="figure_1">
  <g id="patch_1">
   <path d="M 0 288 
L 432 288 
L 432 0 
L 0 0 
z
" style="fill:#ffffff;"/>
  </g>
  <g id="axes_1">
   <g id="patch_2">
    <path d="M 54 252 
L 388.8 252 
L 388.8 34.56 
L 54 34.56 
z
" style="fill:#ffffff;"/>
   </g>
   <g id="matplotlib.axis_1">
    <g id="xtick_1">
     <g id="line2d_1">
      <defs>
       <path d="M 0 0 
L 0 3.5 
" id="mcccd4175c1" style="stroke:#000000;stroke-width:0.8;"/>
      </defs>
      <g>
       <use style="stroke:#000000;stroke-width:0.8;" x="69.218182" xlink:href="#mcccd4175c1" y="252"/>
      </g>
     </g>
     <g id="text_1">
      <!-- −5 -->
      <defs>
       <path d="M 10.59375 35.5 
L 73.1875 35.5 
L 73.1875 27.203125 
L 10.59375 27.203125 
z
" id="DejaVuSans-8722"/>
       <path d="M 10.796875 72.90625 
L 49.515625 72.90625 
L 49.515625 64.59375 
L 19.828125 64.59375 
L 19.828125 46.734375 
Q 21.96875 47.46875 24.109375 47.828125 
Q 26.265625 48.1875 28.421875 48.1875 
Q 40.625 48.1875 47.75 41.5 
Q 54.890625 34.8125 54.890625 23.390625 
Q 54.890625 11.625 47.5625 5.09375 
Q 40.234375 -1.421875 26.90625 -1.421875 
Q 22.3125 -1.421875 17.546875 -0.640625 
Q 12.796875 0.140625 7.71875 1.703125 
L 7.71875 11.625 
Q 12.109375 9.234375 16.796875 8.0625 
Q 21.484375 6.890625 26.703125 6.890625 
Q 35.15625 6.890625 40.078125 11.328125 
Q 45.015625 15.765625 45.015625 23.390625 
Q 45.015625 31 40.078125 35.4375 
Q 35.15625 39.890625 26.703125 39.890625 
Q 22.75 39.890625 18.8125 39.015625 
Q 14.890625 38.140625 10.796875 36.28125 
z
" id="DejaVuSans-53"/>
      </defs>
      <g transform="translate(61.847088 266.598437)scale(0.1 -0.1)">
       <use xlink:href="#DejaVuSans-8722"/>
       <use x="83.789062" xlink:href="#DejaVuSans-53"/>
      </g>
     </g>
    </g>
    <g id="xtick_2">
     <g id="line2d_2">
      <g>
       <use style="stroke:#000000;stroke-width:0.8;" x="112.698701" xlink:href="#mcccd4175c1" y="252"/>
      </g>
     </g>
     <g id="text_2">
      <!-- −4 -->
      <defs>
       <path d="M 37.796875 64.3125 
L 12.890625 25.390625 
L 37.796875 25.390625 
z
M 35.203125 72.90625 
L 47.609375 72.90625 
L 47.609375 25.390625 
L 58.015625 25.390625 
L 58.015625 17.1875 
L 47.609375 17.1875 
L 47.609375 0 
L 37.796875 0 
L 37.796875 17.1875 
L 4.890625 17.1875 
L 4.890625 26.703125 
z
" id="DejaVuSans-52"/>
      </defs>
      <g transform="translate(105.327608 266.598437)scale(0.1 -0.1)">
       <use xlink:href="#DejaVuSans-8722"/>
       <use x="83.789062" xlink:href="#DejaVuSans-52"/>
      </g>
     </g>
    </g>
    <g id="xtick_3">
     <g id="line2d_3">
      <g>
       <use style="stroke:#000000;stroke-width:0.8;" x="156.179221" xlink:href="#mcccd4175c1" y="252"/>
      </g>
     </g>
     <g id="text_3">
      <!-- −3 -->
      <defs>
       <path d="M 40.578125 39.3125 
Q 47.65625 37.796875 51.625 33 
Q 55.609375 28.21875 55.609375 21.1875 
Q 55.609375 10.40625 48.1875 4.484375 
Q 40.765625 -1.421875 27.09375 -1.421875 
Q 22.515625 -1.421875 17.65625 -0.515625 
Q 12.796875 0.390625 7.625 2.203125 
L 7.625 11.71875 
Q 11.71875 9.328125 16.59375 8.109375 
Q 21.484375 6.890625 26.8125 6.890625 
Q 36.078125 6.890625 40.9375 10.546875 
Q 45.796875 14.203125 45.796875 21.1875 
Q 45.796875 27.640625 41.28125 31.265625 
Q 36.765625 34.90625 28.71875 34.90625 
L 20.21875 34.90625 
L 20.21875 43.015625 
L 29.109375 43.015625 
Q 36.375 43.015625 40.234375 45.921875 
Q 44.09375 48.828125 44.09375 54.296875 
Q 44.09375 59.90625 40.109375 62.90625 
Q 36.140625 65.921875 28.71875 65.921875 
Q 24.65625 65.921875 20.015625 65.03125 
Q 15.375 64.15625 9.8125 62.3125 
L 9.8125 71.09375 
Q 15.4375 72.65625 20.34375 73.4375 
Q 25.25 74.21875 29.59375 74.21875 
Q 40.828125 74.21875 47.359375 69.109375 
Q 53.90625 64.015625 53.90625 55.328125 
Q 53.90625 49.265625 50.4375 45.09375 
Q 46.96875 40.921875 40.578125 39.3125 
z
" id="DejaVuSans-51"/>
      </defs>
      <g transform="translate(148.808127 266.598437)scale(0.1 -0.1)">
       <use xlink:href="#DejaVuSans-8722"/>
       <use x="83.789062" xlink:href="#DejaVuSans-51"/>
      </g>
     </g>
    </g>
    <g id="xtick_4">
     <g id="line2d_4">
      <g>
       <use style="stroke:#000000;stroke-width:0.8;" x="199.65974" xlink:href="#mcccd4175c1" y="252"/>
      </g>
     </g>
     <g id="text_4">
      <!-- −2 -->
      <defs>
       <path d="M 19.1875 8.296875 
L 53.609375 8.296875 
L 53.609375 0 
L 7.328125 0 
L 7.328125 8.296875 
Q 12.9375 14.109375 22.625 23.890625 
Q 32.328125 33.6875 34.8125 36.53125 
Q 39.546875 41.84375 41.421875 45.53125 
Q 43.3125 49.21875 43.3125 52.78125 
Q 43.3125 58.59375 39.234375 62.25 
Q 35.15625 65.921875 28.609375 65.921875 
Q 23.96875 65.921875 18.8125 64.3125 
Q 13.671875 62.703125 7.8125 59.421875 
L 7.8125 69.390625 
Q 13.765625 71.78125 18.9375 73 
Q 24.125 74.21875 28.421875 74.21875 
Q 39.75 74.21875 46.484375 68.546875 
Q 53.21875 62.890625 53.21875 53.421875 
Q 53.21875 48.921875 51.53125 44.890625 
Q 49.859375 40.875 45.40625 35.40625 
Q 44.1875 33.984375 37.640625 27.21875 
Q 31.109375 20.453125 19.1875 8.296875 
z
" id="DejaVuSans-50"/>
      </defs>
      <g transform="translate(192.288647 266.598437)scale(0.1 -0.1)">
       <use xlink:href="#DejaVuSans-8722"/>
       <use x="83.789062" xlink:href="#DejaVuSans-50"/>
      </g>
     </g>
    </g>
    <g id="xtick_5">
     <g id="line2d_5">
      <g>
       <use style="stroke:#000000;stroke-width:0.8;" x="243.14026" xlink:href="#mcccd4175c1" y="252"/>
      </g>
     </g>
     <g id="text_5">
      <!-- −1 -->
      <defs>
       <path d="M 12.40625 8.296875 
L 28.515625 8.296875 
L 28.515625 63.921875 
L 10.984375 60.40625 
L 10.984375 69.390625 
L 28.421875 72.90625 
L 38.28125 72.90625 
L 38.28125 8.296875 
L 54.390625 8.296875 
L 54.390625 0 
L 12.40625 0 
z
" id="DejaVuSans-49"/>
      </defs>
      <g transform="translate(235.769166 266.598437)scale(0.1 -0.1)">
       <use xlink:href="#DejaVuSans-8722"/>
       <use x="83.789062" xlink:href="#DejaVuSans-49"/>
      </g>
     </g>
    </g>
    <g id="xtick_6">
     <g id="line2d_6">
      <g>
       <use style="stroke:#000000;stroke-width:0.8;" x="286.620779" xlink:href="#mcccd4175c1" y="252"/>
      </g>
     </g>
     <g id="text_6">
      <!-- 0 -->
      <defs>
       <path d="M 31.78125 66.40625 
Q 24.171875 66.40625 20.328125 58.90625 
Q 16.5 51.421875 16.5 36.375 
Q 16.5 21.390625 20.328125 13.890625 
Q 24.171875 6.390625 31.78125 6.390625 
Q 39.453125 6.390625 43.28125 13.890625 
Q 47.125 21.390625 47.125 36.375 
Q 47.125 51.421875 43.28125 58.90625 
Q 39.453125 66.40625 31.78125 66.40625 
z
M 31.78125 74.21875 
Q 44.046875 74.21875 50.515625 64.515625 
Q 56.984375 54.828125 56.984375 36.375 
Q 56.984375 17.96875 50.515625 8.265625 
Q 44.046875 -1.421875 31.78125 -1.421875 
Q 19.53125 -1.421875 13.0625 8.265625 
Q 6.59375 17.96875 6.59375 36.375 
Q 6.59375 54.828125 13.0625 64.515625 
Q 19.53125 74.21875 31.78125 74.21875 
z
" id="DejaVuSans-48"/>
      </defs>
      <g transform="translate(283.439529 266.598437)scale(0.1 -0.1)">
       <use xlink:href="#DejaVuSans-48"/>
      </g>
     </g>
    </g>
    <g id="xtick_7">
     <g id="line2d_7">
      <g>
       <use style="stroke:#000000;stroke-width:0.8;" x="330.101299" xlink:href="#mcccd4175c1" y="252"/>
      </g>
     </g>
     <g id="text_7">
      <!-- 1 -->
      <g transform="translate(326.920049 266.598437)scale(0.1 -0.1)">
       <use xlink:href="#DejaVuSans-49"/>
      </g>
     </g>
    </g>
    <g id="xtick_8">
     <g id="line2d_8">
      <g>
       <use style="stroke:#000000;stroke-width:0.8;" x="373.581818" xlink:href="#mcccd4175c1" y="252"/>
      </g>
     </g>
     <g id="text_8">
      <!-- 2 -->
      <g transform="translate(370.400568 266.598437)scale(0.1 -0.1)">
       <use xlink:href="#DejaVuSans-50"/>
      </g>
     </g>
    </g>
   </g>
   <g id="matplotlib.axis_2">
    <g id="ytick_1">
     <g id="line2d_9">
      <defs>
       <path d="M 0 0 
L -3.5 0 
" id="m1b39192559" style="stroke:#000000;stroke-width:0.8;"/>
      </defs>
      <g>
       <use style="stroke:#000000;stroke-width:0.8;" x="54" xlink:href="#m1b39192559" y="252"/>
      </g>
     </g>
     <g id="text_9">
      <!-- −2.0 -->
      <defs>
       <path d="M 10.6875 12.40625 
L 21 12.40625 
L 21 0 
L 10.6875 0 
z
" id="DejaVuSans-46"/>
      </defs>
      <g transform="translate(22.717187 255.799219)scale(0.1 -0.1)">
       <use xlink:href="#DejaVuSans-8722"/>
       <use x="83.789062" xlink:href="#DejaVuSans-50"/>
       <use x="147.412109" xlink:href="#DejaVuSans-46"/>
       <use x="179.199219" xlink:href="#DejaVuSans-48"/>
      </g>
     </g>
    </g>
    <g id="ytick_2">
     <g id="line2d_10">
      <g>
       <use style="stroke:#000000;stroke-width:0.8;" x="54" xlink:href="#m1b39192559" y="224.82"/>
      </g>
     </g>
     <g id="text_10">
      <!-- −1.5 -->
      <g transform="translate(22.717187 228.619219)scale(0.1 -0.1)">
       <use xlink:href="#DejaVuSans-8722"/>
       <use x="83.789062" xlink:href="#DejaVuSans-49"/>
       <use x="147.412109" xlink:href="#DejaVuSans-46"/>
       <use x="179.199219" xlink:href="#DejaVuSans-53"/>
      </g>
     </g>
    </g>
    <g id="ytick_3">
     <g id="line2d_11">
      <g>
       <use style="stroke:#000000;stroke-width:0.8;" x="54" xlink:href="#m1b39192559" y="197.64"/>
      </g>
     </g>
     <g id="text_11">
      <!-- −1.0 -->
      <g transform="translate(22.717187 201.439219)scale(0.1 -0.1)">
       <use xlink:href="#DejaVuSans-8722"/>
       <use x="83.789062" xlink:href="#DejaVuSans-49"/>
       <use x="147.412109" xlink:href="#DejaVuSans-46"/>
       <use x="179.199219" xlink:href="#DejaVuSans-48"/>
      </g>
     </g>
    </g>
    <g id="ytick_4">
     <g id="line2d_12">
      <g>
       <use style="stroke:#000000;stroke-width:0.8;" x="54" xlink:href="#m1b39192559" y="170.46"/>
      </g>
     </g>
     <g id="text_12">
      <!-- −0.5 -->
      <g transform="translate(22.717187 174.259219)scale(0.1 -0.1)">
       <use xlink:href="#DejaVuSans-8722"/>
       <use x="83.789062" xlink:href="#DejaVuSans-48"/>
       <use x="147.412109" xlink:href="#DejaVuSans-46"/>
       <use x="179.199219" xlink:href="#DejaVuSans-53"/>
      </g>
     </g>
    </g>
    <g id="ytick_5">
     <g id="line2d_13">
      <g>
       <use style="stroke:#000000;stroke-width:0.8;" x="54" xlink:href="#m1b39192559" y="143.28"/>
      </g>
     </g>
     <g id="text_13">
      <!-- 0.0 -->
      <g transform="translate(31.096875 147.079219)scale(0.1 -0.1)">
       <use xlink:href="#DejaVuSans-48"/>
       <use x="63.623047" xlink:href="#DejaVuSans-46"/>
       <use x="95.410156" xlink:href="#DejaVuSans-48"/>
      </g>
     </g>
    </g>
    <g id="ytick_6">
     <g id="line2d_14">
      <g>
       <use style="stroke:#000000;stroke-width:0.8;" x="54" xlink:href="#m1b39192559" y="116.1"/>
      </g>
     </g>
     <g id="text_14">
      <!-- 0.5 -->
      <g transform="translate(31.096875 119.899219)scale(0.1 -0.1)">
       <use xlink:href="#DejaVuSans-48"/>
       <use x="63.623047" xlink:href="#DejaVuSans-46"/>
       <use x="95.410156" xlink:href="#DejaVuSans-53"/>
      </g>
     </g>
    </g>
    <g id="ytick_7">
     <g id="line2d_15">
      <g>
       <use style="stroke:#000000;stroke-width:0.8;" x="54" xlink:href="#m1b39192559" y="88.92"/>
      </g>
     </g>
     <g id="text_15">
      <!-- 1.0 -->
      <g transform="translate(31.096875 92.719219)scale(0.1 -0.1)">
       <use xlink:href="#DejaVuSans-49"/>
       <use x="63.623047" xlink:href="#DejaVuSans-46"/>
       <use x="95.410156" xlink:href="#DejaVuSans-48"/>
      </g>
     </g>
    </g>
    <g id="ytick_8">
     <g id="line2d_16">
      <g>
       <use style="stroke:#000000;stroke-width:0.8;" x="54" xlink:href="#m1b39192559" y="61.74"/>
      </g>
     </g>
     <g id="text_16">
      <!-- 1.5 -->
      <g transform="translate(31.096875 65.539219)scale(0.1 -0.1)">
       <use xlink:href="#DejaVuSans-49"/>
       <use x="63.623047" xlink:href="#DejaVuSans-46"/>
       <use x="95.410156" xlink:href="#DejaVuSans-53"/>
      </g>
     </g>
    </g>
    <g id="ytick_9">
     <g id="line2d_17">
      <g>
       <use style="stroke:#000000;stroke-width:0.8;" x="54" xlink:href="#m1b39192559" y="34.56"/>
      </g>
     </g>
     <g id="text_17">
      <!-- 2.0 -->
      <g transform="translate(31.096875 38.359219)scale(0.1 -0.1)">
       <use xlink:href="#DejaVuSans-50"/>
       <use x="63.623047" xlink:href="#DejaVuSans-46"/>
       <use x="95.410156" xlink:href="#DejaVuSans-48"/>
      </g>
     </g>
    </g>
   </g>
   <g id="line2d_18">
    <path clip-path="url(#p3530fcf16f)" d="M 69.218182 143.700364 
L 72.292562 138.884275 
L 75.366942 139.69747 
L 78.441322 137.608614 
L 81.515702 144.700029 
L 84.590083 144.640739 
L 87.664463 150.737349 
L 90.738843 151.429532 
L 93.813223 153.690114 
L 96.887603 147.341343 
L 99.961983 146.356178 
L 103.036364 149.333993 
L 106.110744 149.588438 
L 109.185124 149.372509 
L 112.259504 148.727783 
L 115.333884 149.894369 
L 118.408264 148.419287 
L 121.482645 149.796368 
L 124.557025 148.278696 
L 127.631405 147.126419 
L 130.705785 144.538922 
L 133.780165 140.590172 
L 136.854545 144.086824 
L 139.928926 142.817887 
L 143.003306 141.112128 
L 146.077686 140.675152 
L 149.152066 141.051577 
L 152.226446 143.426116 
L 155.300826 145.065203 
L 158.375207 144.073844 
L 161.449587 145.924325 
L 164.523967 145.405692 
L 167.598347 144.482498 
L 170.672727 144.247966 
L 173.747107 141.82688 
L 176.821488 147.220222 
L 179.895868 139.880053 
L 182.970248 137.205577 
L 186.044628 136.58492 
L 189.119008 143.801738 
L 192.193388 143.404718 
L 195.267769 142.539862 
L 198.342149 141.990474 
L 201.416529 141.239055 
L 204.490909 136.503803 
L 207.565289 139.021266 
L 210.639669 139.113083 
L 213.71405 137.264579 
L 216.78843 138.018512 
L 219.86281 142.312114 
L 222.93719 138.646405 
L 226.01157 139.648824 
L 229.08595 140.700928 
L 232.160331 141.278478 
L 235.234711 144.334338 
L 238.309091 142.732166 
L 241.383471 140.185213 
L 244.457851 140.748635 
L 247.532231 137.157609 
L 250.606612 134.373977 
L 253.680992 132.21181 
L 256.755372 133.838468 
L 259.829752 131.884041 
L 262.904132 133.459378 
L 265.978512 127.567139 
L 269.052893 127.700842 
L 272.127273 124.599798 
L 275.201653 119.733552 
L 278.276033 116.478743 
L 281.350413 115.623956 
L 284.424793 113.004589 
L 287.499174 111.911166 
L 290.573554 110.766254 
L 293.647934 107.365805 
L 296.722314 109.341259 
L 299.796694 106.121878 
L 302.871074 110.410715 
L 305.945455 102.565447 
L 309.019835 101.973285 
L 312.094215 103.629251 
L 315.168595 101.273203 
L 318.242975 104.810496 
L 321.317355 109.729471 
L 324.391736 104.107258 
L 327.466116 105.464919 
L 330.540496 101.926463 
L 333.614876 103.035714 
L 336.689256 105.48715 
L 339.763636 109.07649 
L 342.838017 105.929675 
L 345.912397 101.535602 
L 348.986777 99.160254 
L 352.061157 98.021012 
L 355.135537 98.361302 
L 358.209917 97.723656 
L 361.284298 96.746304 
L 364.358678 93.616429 
L 367.433058 88.534324 
L 370.507438 86.385464 
L 373.581818 88.446542 
" style="fill:none;stroke:#1f77b4;stroke-linecap:square;stroke-width:1.5;"/>
   </g>
   <g id="line2d_19">
    <path clip-path="url(#p3530fcf16f)" d="M 69.218182 143.666976 
L 72.292562 140.466121 
L 75.366942 136.893714 
L 78.441322 137.210535 
L 81.515702 133.380167 
L 84.590083 129.095522 
L 87.664463 130.895935 
L 90.738843 126.131703 
L 93.813223 126.048154 
L 96.887603 133.194508 
L 99.961983 133.558021 
L 103.036364 133.513741 
L 106.110744 134.61176 
L 109.185124 133.565827 
L 112.259504 136.890509 
L 115.333884 140.939004 
L 118.408264 142.897414 
L 121.482645 139.084594 
L 124.557025 138.811917 
L 127.631405 138.131823 
L 130.705785 139.276462 
L 133.780165 141.815219 
L 136.854545 138.802277 
L 139.928926 143.011958 
L 143.003306 143.721453 
L 146.077686 146.457458 
L 149.152066 147.205005 
L 152.226446 146.492391 
L 155.300826 146.070716 
L 158.375207 143.701503 
L 161.449587 141.548513 
L 164.523967 143.743254 
L 167.598347 143.300031 
L 170.672727 145.025272 
L 173.747107 146.941629 
L 176.821488 149.603522 
L 179.895868 155.587483 
L 182.970248 159.219536 
L 186.044628 164.079389 
L 189.119008 162.377202 
L 192.193388 154.288575 
L 195.267769 153.817833 
L 198.342149 154.292866 
L 201.416529 155.189905 
L 204.490909 154.876864 
L 207.565289 154.395084 
L 210.639669 156.315172 
L 213.71405 157.04091 
L 216.78843 159.753483 
L 219.86281 159.603515 
L 222.93719 162.79753 
L 226.01157 159.055193 
L 229.08595 159.107939 
L 232.160331 154.688715 
L 235.234711 153.145172 
L 238.309091 158.115049 
L 241.383471 164.551214 
L 244.457851 165.679236 
L 247.532231 162.811133 
L 250.606612 157.899943 
L 253.680992 159.849109 
L 256.755372 168.947501 
L 259.829752 170.326206 
L 262.904132 171.312922 
L 265.978512 170.893602 
L 269.052893 173.028126 
L 272.127273 175.75081 
L 275.201653 173.790419 
L 278.276033 172.383222 
L 281.350413 173.648348 
L 284.424793 174.133739 
L 287.499174 177.10217 
L 290.573554 177.94963 
L 293.647934 181.632229 
L 296.722314 180.983297 
L 299.796694 177.691072 
L 302.871074 174.522284 
L 305.945455 176.397245 
L 309.019835 176.703304 
L 312.094215 180.137142 
L 315.168595 181.034958 
L 318.242975 184.346717 
L 321.317355 187.431215 
L 324.391736 187.842529 
L 327.466116 189.182421 
L 330.540496 188.837726 
L 333.614876 191.088924 
L 336.689256 188.508263 
L 339.763636 184.909106 
L 342.838017 186.518601 
L 345.912397 181.341891 
L 348.986777 182.981549 
L 352.061157 183.039723 
L 355.135537 182.870504 
L 358.209917 187.725009 
L 361.284298 185.608447 
L 364.358678 187.349383 
L 367.433058 184.458819 
L 370.507438 189.612721 
L 373.581818 190.07305 
" style="fill:none;stroke:#ff7f0e;stroke-linecap:square;stroke-width:1.5;"/>
   </g>
   <g id="patch_3">
    <path d="M 54 252 
L 54 34.56 
" style="fill:none;stroke:#000000;stroke-linecap:square;stroke-linejoin:miter;stroke-width:0.8;"/>
   </g>
   <g id="patch_4">
    <path d="M 388.8 252 
L 388.8 34.56 
" style="fill:none;stroke:#000000;stroke-linecap:square;stroke-linejoin:miter;stroke-width:0.8;"/>
   </g>
   <g id="patch_5">
    <path d="M 54 252 
L 388.8 252 
" style="fill:none;stroke:#000000;stroke-linecap:square;stroke-linejoin:miter;stroke-width:0.8;"/>
   </g>
   <g id="patch_6">
    <path d="M 54 34.56 
L 388.8 34.56 
" style="fill:none;stroke:#000000;stroke-linecap:square;stroke-linejoin:miter;stroke-width:0.8;"/>
   </g>
  </g>
 </g>
 <defs>
  <clipPath id="p3530fcf16f">
   <rect height="217.44" width="334.8" x="54" y="34.56"/>
  </clipPath>
 </defs>
</svg>
